<?xml version="1.0" encoding="utf-8"?>
<svg width="327px" height="290px" viewBox="0 0 327 290" version="1.1" xmlns:xlink="http://www.w3.org/1999/xlink" xmlns="http://www.w3.org/2000/svg">
  <defs>
    <path d="M0 0L325 0L325 288L0 288L0 0Z" id="path_1" />
    <path d="M237.069 204.349L281.759 256.044L327.876 256.044L327.876 0L0 0L0 226.299L66.716 226.299C85.5981 248.12 113.495 261.925 144.616 261.925C185.194 261.925 220.29 238.455 237.069 204.349L237.069 204.349Z" id="path_2" />
    <clipPath id="mask_1">
      <use xlink:href="#path_1" />
    </clipPath>
    <clipPath id="mask_2">
      <use xlink:href="#path_2" />
    </clipPath>
  </defs>
  <g id="svg" transform="translate(1 1)">
    <path d="M0 104C0 46.5624 46.5624 0 104 0C161.438 0 208 46.5624 208 104C208 161.438 161.438 208 104 208C46.5624 208 0 161.438 0 104Z" transform="translate(48 68)" id="Circle" fill="#F22539" fill-rule="evenodd" stroke="#000000" stroke-width="2" />
    <g id="Mask-group">
      <path d="M0 0L325 0L325 288L0 288L0 0Z" id="Rectangle" fill="none" fill-rule="evenodd" stroke="none" />
      <g clip-path="url(#mask_1)">
        <g id="Group" transform="translate(7.56238 13.0752)">
          <g id="Mask-group">
            <path d="M237.069 204.349L281.759 256.044L327.876 256.044L327.876 0L0 0L0 226.299L66.716 226.299C85.5981 248.12 113.495 261.925 144.616 261.925C185.194 261.925 220.29 238.455 237.069 204.349L237.069 204.349Z" id="Shape" fill="none" fill-rule="evenodd" stroke="none" />
            <g clip-path="url(#mask_2)">
              <g id="Group" transform="translate(33.95233 3.37564)">
                <path d="M20.086 0C20.086 0 49.027 4.65399 70.77 11.655C92.512 18.65 111.48 30.534 111.48 30.534C111.48 30.534 109.737 69.814 96.434 94.824C80.827 84.345 42.281 63.334 23.748 56.796C28.517 66.462 35.971 85.528 39.947 103.041C30.441 102.888 17.71 105.278 17.71 105.278L0 45.076L20.086 0L20.086 0Z" transform="translate(156.10529 122.25017)" id="Shape" fill="#F8CC46" fill-rule="evenodd" stroke="none" />
                <path d="M65.724 42.827C80.615 59.833 91.892 78.597 97.238 88.16C96.975 88.688 96.711 89.209 96.434 89.725C80.827 79.247 42.281 58.235 23.749 51.697C28.517 61.363 35.971 80.429 39.947 97.943C30.441 97.789 17.71 100.179 17.71 100.179L0 39.977L17.815 0C23.806 4.33 47.453 21.958 65.724 42.827L65.724 42.827Z" transform="translate(156.09929 127.35516)" id="Shape" fill="#ECA539" fill-rule="evenodd" stroke="none" />
                <path d="M20.086 0C20.086 0 49.027 4.65399 70.77 11.655C92.512 18.65 111.48 30.534 111.48 30.534C111.48 30.534 109.737 69.814 96.434 94.824C80.827 84.345 42.281 63.334 23.748 56.796C28.517 66.462 35.971 85.528 39.947 103.041C30.441 102.888 17.71 105.278 17.71 105.278L0 45.076L20.086 0L20.086 0Z" transform="translate(156.10529 122.25017)" id="Shape" fill="none" fill-rule="evenodd" stroke="#333333" stroke-width="2" stroke-linecap="round" stroke-linejoin="round" />
                <path d="M168.547 40.8678C168.547 40.8678 168.095 54.8638 170.049 66.2398C172.003 77.6158 175.017 88.9608 182.671 101.089C190.325 113.21 194.795 118.892 195.032 126.478C198.538 123.589 202.811 121.282 204.378 122.71C205.946 124.137 205.261 125.95 205.261 125.95C205.261 125.95 207.03 124.662 207.923 125.682C208.817 126.702 209.186 128.802 208.468 131.093C209.713 130.892 210.274 132.573 209.004 136.429C207.734 140.285 203.295 151.195 191.876 162.723C180.457 174.252 169.809 182.381 163.284 178.839C161.016 177.558 161.185 174.453 161.185 174.453C161.185 174.453 159.904 175.057 155.633 174.301C151.362 173.545 130.974 167.428 117.638 166.95C104.303 166.471 86.1203 166.556 66.9123 172.927C67.0663 175.207 66.0293 180.625 57.2652 176.909C48.5015 173.193 37.1632 165.773 27.2426 152.821C17.322 139.868 15.2011 131.363 16.6143 130.504C17.3162 129.996 18.5175 130.554 18.5175 130.554C18.5175 130.554 16.2522 124.954 17.7832 124.008C19.3141 123.061 21.3938 125.306 21.3938 125.306C21.3938 125.306 21.0853 123.434 22.2238 122.927C23.3623 122.419 25.1374 122.83 28.2863 125.012C28.1951 121.337 28.2741 116.649 33.2411 110.17C38.2081 103.691 42.0756 101.818 46.2114 100.977C47.9212 94.8888 48.914 91.6128 49.4399 87.9708C49.4399 87.9708 40.169 83.1138 28.6263 68.1878C17.0835 53.2608 9.91609 40.1898 7.09239 32.6238C4.27489 25.0568 2.55529 20.2908 1.73339 19.4788C0.910885 18.6618 -0.130215 17.1808 0.0133858 16.5328C0.156986 15.8838 2.04919 16.3278 2.19269 15.6788C2.33629 15.0308 0.921688 12.4778 1.36769 11.6908C1.81379 10.9038 4.12059 11.2558 4.30079 10.9708C4.48099 10.6868 3.65839 8.23277 4.12089 7.60977C4.58269 6.97978 7.05119 7.36578 7.52379 6.84277C7.99629 6.31978 6.67739 3.64877 7.39729 2.94278C8.11709 2.23578 13.5402 3.75179 14.0456 3.49178C14.5447 3.23178 14.8153 0.135773 15.6434 0.00178528C16.4715 -0.132217 33.0976 7.33278 42.1146 12.0568C51.1317 16.7808 168.547 40.8678 168.547 40.8678L168.547 40.8678Z" transform="translate(0 137.49438)" id="Shape" fill="#F8CC46" fill-rule="evenodd" stroke="#333333" stroke-width="1.2" stroke-linecap="round" stroke-linejoin="round" />
                <path d="M25.4707 16.011C25.4707 16.011 13.524 13.928 0 0C6.15919 7.95299 13.9956 18.49 23.6422 24.001C24.4821 20.65 25.4707 16.011 25.4707 16.011L25.4707 16.011Z" transform="translate(25.165989 201.09517)" id="Shape" fill="#ECA539" fill-rule="evenodd" stroke="none" />
                <path d="M168.547 40.8678C168.547 40.8678 168.095 54.8638 170.049 66.2398C172.003 77.6158 175.017 88.9608 182.671 101.089C190.325 113.21 194.795 118.892 195.032 126.478C198.538 123.589 202.811 121.282 204.378 122.71C205.946 124.137 205.261 125.95 205.261 125.95C205.261 125.95 207.03 124.662 207.923 125.682C208.817 126.702 209.186 128.802 208.468 131.093C209.713 130.892 210.274 132.573 209.004 136.429C207.734 140.285 203.295 151.195 191.876 162.723C180.457 174.252 169.809 182.381 163.284 178.839C161.016 177.558 161.185 174.453 161.185 174.453C161.185 174.453 159.904 175.057 155.633 174.301C151.362 173.545 130.974 167.428 117.638 166.95C104.303 166.471 86.1203 166.556 66.9123 172.927C67.0663 175.207 66.0293 180.625 57.2652 176.909C48.5015 173.193 37.1632 165.773 27.2426 152.821C17.322 139.868 15.2011 131.363 16.6143 130.504C17.3161 129.996 18.5175 130.554 18.5175 130.554C18.5175 130.554 16.2522 124.954 17.7832 124.008C19.3141 123.061 21.3938 125.306 21.3938 125.306C21.3938 125.306 21.0853 123.434 22.2238 122.927C23.3623 122.419 25.1374 122.83 28.2863 125.012C28.1951 121.337 28.2741 116.649 33.2411 110.17C38.2082 103.691 42.0756 101.818 46.2114 100.977C47.9212 94.8888 48.914 91.6128 49.4399 87.9708C49.4399 87.9708 40.169 83.1138 28.6263 68.1878C17.0835 53.2608 9.91609 40.1898 7.09239 32.6238C4.27489 25.0568 2.55529 20.2908 1.73339 19.4788C0.910885 18.6618 -0.130215 17.1808 0.0133858 16.5328C0.156986 15.8838 2.04919 16.3278 2.19269 15.6788C2.33629 15.0308 0.921688 12.4778 1.36769 11.6908C1.81379 10.9038 4.12059 11.2558 4.30079 10.9708C4.48099 10.6868 3.65839 8.23277 4.12089 7.60977C4.58269 6.97978 7.05119 7.36578 7.52379 6.84277C7.99629 6.31978 6.67739 3.64877 7.39729 2.94278C8.11709 2.23578 13.5402 3.75179 14.0456 3.49178C14.5446 3.23178 14.8153 0.135773 15.6434 0.00178528C16.4715 -0.132217 33.0976 7.33278 42.1146 12.0568C51.1317 16.7808 168.547 40.8678 168.547 40.8678L168.547 40.8678Z" transform="translate(0 137.49438)" id="Shape" fill="none" fill-rule="evenodd" stroke="#333333" stroke-width="2" stroke-linecap="round" stroke-linejoin="round" />
                <path d="M130.243 177.016C140.367 166.009 138.78 159.669 136.815 149.563C134.849 139.456 136.956 130.527 137.184 121.785C137.412 113.043 136.637 104.826 134.423 99.5515C180.711 115.187 214.547 99.3105 226.507 92.4015C167.048 54.8375 115.529 79.4165 115.529 79.4165C115.529 79.4165 93.8552 60.5125 55.4122 66.757C71.7672 53.2226 91.2132 36.8915 100.79 0C79.4552 3.839 30.6522 28.1891 19.3762 83.8565C16.809 87.7095 12.8051 89.7995 11.0205 103.51C9.23594 117.222 6.28564 130.352 2.64274 138.169C-1.00016 145.986 -3.96956 157.857 15.9479 179.742C29.8682 194.402 35.5072 198.065 35.5072 198.065" transform="translate(40.739048 0.38566017)" id="Shape" fill="#F8CC46" fill-rule="evenodd" stroke="none" />
                <path d="M4.88693 1.10649C4.87994 1.97548 4.14093 3.12149 2.27094 3.03049C0.401932 2.93948 -0.312057 1.31248 0.123932 0.551483C0.559937 -0.208511 4.90193 -0.321518 4.88693 1.10649L4.88693 1.10649Z" transform="translate(110.272354 129.27768)" id="Shape" fill="#333333" fill-rule="evenodd" stroke="none" />
                <path d="M5.20714 1.29915C-0.772858 4.05714 -1.47386 14.2601 2.44514 18.6221C6.36314 22.9831 14.1711 23.5421 18.2081 19.6491C22.2461 15.7551 22.7871 6.98215 17.7721 2.73015C12.7571 -1.52086 7.62614 0.181152 5.20714 1.29915L5.20714 1.29915Z" transform="translate(141.80815 120.25702)" id="Shape" fill="#333333" fill-rule="evenodd" stroke="none" />
                <path d="M2.25642 0.471481C1.11343 1.05548 -1.10057 4.45547 0.650436 6.89848C2.40244 9.34048 5.67442 9.28448 7.33842 8.08948C9.00243 6.89548 9.60944 3.93648 8.09444 1.83148C6.57942 -0.273514 3.79742 -0.31752 2.25642 0.471481L2.25642 0.471481Z" transform="translate(145.18286 121.713684)" id="Shape" fill="#FFFFFF" fill-rule="evenodd" stroke="none" />
                <path d="M17.8002 1.87298C14.8702 -0.527031 7.62025 -1.33203 2.97125 3.83997C-1.67775 9.01298 -0.545753 16.559 4.11125 19.895C8.76825 23.231 17.5662 20.495 19.6003 16.118C21.6403 11.734 21.4202 4.83797 17.8002 1.87298L17.8002 1.87298Z" transform="translate(61.841038 111.373184)" id="Shape" fill="#333333" fill-rule="evenodd" stroke="none" />
                <path d="M6.60824 0.731796C5.09323 -0.359207 2.11523 -0.281204 0.851234 1.31079C-0.412766 2.90179 -0.328766 6.50179 1.50623 7.8268C3.34223 9.15079 6.60623 8.58179 7.74623 6.95779C8.88624 5.33379 8.78323 2.2948 6.60824 0.731796L6.60824 0.731796Z" transform="translate(72.56505 113.89337)" id="Shape" fill="#FFFFFF" fill-rule="evenodd" stroke="none" />
                <path d="M66.087 0C62.908 12.2472 58.635 22.2203 53.756 30.5865C51.66 28.4955 46.453 27.9983 31.898 30.1788C19.063 32.0975 5.896 41.7222 0 46.513C19.533 16.8888 50.313 2.8357 66.087 0L66.087 0Z" transform="translate(75.44229 0.38505936)" id="Shape" fill="#333333" fill-rule="evenodd" stroke="none" />
                <path d="M68.605 14.8588C58.774 20.5398 34.158 32.2738 0 27.5868C5.78299 26.2688 16.908 23.0708 25.54 16.6028C35.724 8.9648 38.349 3.362 37.163 0C47.208 3.2383 57.774 8.0158 68.605 14.8588L68.605 14.8588Z" transform="translate(198.6413 77.933365)" id="Shape" fill="#333333" fill-rule="evenodd" stroke="none" />
                <path d="M8.69436 0.00349426C8.69436 0.00349426 8.53336 0.0449982 8.26036 0.161194C7.97936 0.259193 7.59937 0.443298 7.14736 0.666298C6.70336 0.907593 6.17936 1.1758 5.65836 1.53259C5.12936 1.87109 4.58736 2.2618 4.05236 2.67699C3.78836 2.8811 3.51836 3.08579 3.25936 3.2831C3.00237 3.4928 2.75836 3.7076 2.52636 3.91489C2.05536 4.32999 1.61337 4.7168 1.26436 5.0817C0.558365 5.79949 0.101364 6.2897 0.101364 6.2897C-0.0416412 6.4427 -0.0306396 6.68269 0.117363 6.8267C0.256363 6.95869 0.478363 6.96169 0.618362 6.8397L0.635361 6.8257C0.635361 6.8257 1.13636 6.3947 1.86036 5.7319C2.04636 5.5673 2.22936 5.3714 2.44536 5.19109C2.66136 5.01089 2.88836 4.8168 3.12136 4.6159C3.35536 4.4212 3.59937 4.2064 3.83736 3.9922C4.08836 3.7894 4.33936 3.58019 4.59736 3.37669C5.09937 2.95219 5.63036 2.56899 6.11736 2.19029C6.59736 1.80599 7.07036 1.47929 7.45036 1.16219C7.85136 0.874496 8.18036 0.619499 8.40936 0.444298C8.64436 0.268394 8.77336 0.166695 8.77336 0.166695C8.81536 0.137192 8.82137 0.0730972 8.79136 0.0316925C8.77636 0.00789642 8.73736 -0.00720215 8.69436 0.00349426L8.69436 0.00349426Z" transform="translate(59.740925 77.68947)" id="Shape" fill="#333333" fill-rule="evenodd" stroke="#333333" stroke-width="1" />
                <path d="M36.3545 9.49017C36.3545 9.49017 34.0045 19.1622 28.4875 29.5452C22.9705 39.9292 17.7565 45.5262 13.7785 45.2922C9.80051 45.0582 3.4425 35.3112 1.6115 21.0692C-0.213501 6.82718 0.00849915 5.13718 0.00849915 5.13718C0.00849915 5.13718 5.5845 5.52718 10.1815 3.23817C14.7795 0.95018 18.1765 -2.20682 24.5595 2.24918C30.9295 6.70618 32.7135 9.46318 36.3545 9.49017L36.3545 9.49017Z" transform="translate(93.06279 143.87299)" id="Shape" fill="#6C4C59" fill-rule="evenodd" stroke="#333333" stroke-width="1.2" stroke-linecap="round" stroke-linejoin="round" />
                <path d="M0 7.5087C2.25699 4.4027 7.11499 -0.385315 15.395 0.0246887C24.755 0.484695 28.379 7.76769 29.556 11.0987C28.774 12.8317 27.905 14.6317 26.937 16.4597C21.414 26.8447 16.206 32.4407 12.228 32.2067C8.25 31.9727 1.892 22.2257 0.0609894 7.98369C0.0379944 7.82169 0.022995 7.67068 0 7.5087L0 7.5087Z" transform="translate(94.6133 156.95747)" id="Shape" fill="#F26981" fill-rule="evenodd" stroke="#333333" stroke-width="1.2" stroke-linecap="round" stroke-linejoin="round" />
                <path d="M5.48502 0.0160828C5.48502 0.0160828 5.408 0.0620728 5.27602 0.13208C5.15001 0.208069 4.95601 0.291077 4.72601 0.397079C4.49701 0.509079 4.22201 0.606079 3.93001 0.718079C3.62901 0.805069 3.326 0.944077 2.99602 0.996078C2.83501 1.03108 2.67401 1.06607 2.51401 1.10808C2.36002 1.15508 2.19601 1.15907 2.04701 1.18007C1.897 1.20207 1.74602 1.21007 1.60901 1.23708C1.47301 1.26907 1.341 1.27008 1.214 1.27008C0.727005 1.27507 0.396011 1.31407 0.396011 1.31407L0.333008 1.32108C0.127014 1.34207 -0.0189819 1.52707 0.00201416 1.73508C0.0200043 1.91707 0.167007 2.05408 0.339004 2.06807C0.339004 2.06807 0.703018 2.10208 1.25401 2.10307C1.52802 2.12607 1.84401 2.05707 2.186 1.99707C2.35301 1.96107 2.52901 1.95007 2.70001 1.88808C2.87201 1.83908 3.04401 1.78407 3.21501 1.72208C3.56502 1.62308 3.87502 1.42708 4.18401 1.29507C4.33401 1.21608 4.47002 1.12007 4.60101 1.03708C4.73201 0.954071 4.85701 0.878082 4.96301 0.79808C5.18101 0.63707 5.35001 0.493073 5.46501 0.380081C5.58101 0.273071 5.63802 0.210068 5.63802 0.210068L5.643 0.203079C5.688 0.148071 5.68101 0.0730743 5.62601 0.0270691C5.591 -0.00692749 5.52701 -0.00692749 5.48502 0.0160828L5.48502 0.0160828Z" transform="translate(129.04628 151.67209)" id="Shape" fill="#333333" fill-rule="evenodd" stroke="none" />
                <path d="M0.0264587 0.308136C0.0264587 0.308136 0.0664673 0.386139 0.176468 0.534134C0.279465 0.682129 0.431458 0.870132 0.624466 1.09113C0.717468 1.20213 0.842468 1.30414 0.961472 1.42514C1.08647 1.53313 1.20847 1.67313 1.35846 1.77814C1.65747 1.98914 1.96147 2.24413 2.31447 2.41814C2.65146 2.62514 3.01047 2.79213 3.35747 2.90913C3.52846 2.97414 3.69347 3.04013 3.85646 3.09314C4.01447 3.15413 4.17447 3.16913 4.31746 3.20613C4.89847 3.31813 5.28247 3.36214 5.28247 3.36214C5.48647 3.38614 5.67447 3.23413 5.69746 3.02913C5.71747 2.84914 5.60646 2.68913 5.44847 2.62914L5.39647 2.60913C5.39647 2.60913 5.05547 2.49113 4.53546 2.35313C4.40446 2.31514 4.26346 2.29813 4.12447 2.22913C3.98546 2.16713 3.83446 2.11913 3.67647 2.05913C3.51846 1.99913 3.35547 1.95213 3.19647 1.87914C3.04347 1.79913 2.88347 1.72014 2.71747 1.64813C2.38246 1.51714 2.08946 1.31213 1.80046 1.14413C1.64647 1.06514 1.52246 0.963135 1.39447 0.881134C1.27147 0.792129 1.13747 0.716125 1.04047 0.631134C0.827469 0.462128 0.642471 0.329132 0.531464 0.226135C0.413467 0.130127 0.34346 0.0611267 0.34346 0.0611267C0.265472 -0.0198669 0.139465 -0.0198669 0.0584717 0.058136C-0.00453186 0.12114 -0.0145416 0.211136 0.0184631 0.290131L0.0264587 0.308136L0.0264587 0.308136Z" transform="translate(87.733826 146.04103)" id="Shape" fill="#333333" fill-rule="evenodd" stroke="none" />
                <path d="M13.6842 0.11705C18.2322 -0.707962 23.0242 3.02704 25.2692 5.09004C26.7602 13.247 26.8832 19.309 18.0082 28.959C16.4912 30.608 15.0642 32.083 13.6932 33.426C-0.101837 32.347 -0.982834 20.121 0.549164 12.643C2.13918 4.86804 7.46916 1.24304 13.6842 0.11705L13.6842 0.11705Z" transform="translate(152.97412 148.44612)" id="Shape" fill="#F22539" fill-rule="evenodd" stroke="#333333" stroke-width="1.2" stroke-linecap="round" stroke-linejoin="round" />
                <path d="M1.0592 4.01837C3.90781 1.07437 9.79391 -2.18063 16.3611 1.96536C24.8065 7.29837 25.9755 20.4974 21.8435 27.4124C18.7465 32.6004 12.0649 33.1074 8.9195 33.0364C-0.926392 19.5064 -0.969795 10.5194 1.0592 4.01837L1.0592 4.01837Z" transform="translate(40.73878 138.5468)" id="Shape" fill="#F22539" fill-rule="evenodd" stroke="#333333" stroke-width="1.2" stroke-linecap="round" stroke-linejoin="round" />
                <path d="M26.1825 0.870773C26.1505 2.56776 19.4075 7.05077 12.3255 6.91277C5.24449 6.78177 -0.0585175 2.24277 0.000488281 0.752762C0.059494 -0.737228 6.92248 0.373764 12.2345 0.789764C17.5485 1.21378 26.2185 -1.03423 26.1825 0.870773L26.1825 0.870773Z" transform="translate(90.4588 204.8234)" id="Shape" fill="#ECA539" fill-rule="evenodd" stroke="none" />
                <path d="M0.737724 28.0286C0.737724 28.0286 1.04523 26.3046 1.50672 23.7216C1.69862 22.4216 1.87972 20.8876 2.09522 19.2556C2.29122 17.6186 2.44463 15.8726 2.60482 14.1316C2.72633 12.3816 2.87342 10.6366 2.96793 8.99658C3.06252 7.35757 3.12952 5.82257 3.14292 4.50858C3.15633 3.19458 3.15982 2.09758 3.13352 1.33258C3.11983 0.567581 3.08813 0.126572 3.08813 0.126572C3.08682 0.0505829 3.01782 -0.00642395 2.94892 0.000579834C2.88002 0.00758362 2.82813 0.0575714 2.82192 0.121582C2.82192 0.121582 2.77712 0.557571 2.68942 1.32057C2.60162 2.08357 2.52113 3.17058 2.39302 4.47658C2.29012 5.78058 2.15852 7.30258 2.05072 8.93659C1.94302 10.5716 1.78282 12.3116 1.64762 14.0506C1.55802 14.9216 1.47422 15.7866 1.38902 16.6386C1.30392 17.4906 1.24382 18.3396 1.14793 19.1486C0.956924 20.7716 0.779526 22.2796 0.625221 23.5756C0.253922 26.1756 0.00402069 27.9056 0.00402069 27.9056C-0.0258789 28.1116 0.114021 28.3076 0.319527 28.3376C0.512421 28.3686 0.707222 28.2286 0.737724 28.0286L0.737724 28.0286Z" transform="translate(49.061863 197.48859)" id="Shape" fill="#333333" fill-rule="evenodd" stroke="#333333" stroke-width="1" />
                <path d="M16.335 2.25258C16.335 2.25258 16.113 2.12257 15.702 1.93558C15.291 1.75558 14.708 1.49059 13.975 1.24757C13.247 0.996582 12.38 0.741577 11.4358 0.538574C10.9646 0.446579 10.4727 0.337585 9.97276 0.273575C9.47086 0.190582 8.95837 0.128586 8.44786 0.0845795C7.93597 0.0285797 7.41726 0.0295868 6.90926 0.0115814C6.39986 -0.0204163 5.89816 0.0235748 5.41766 0.0275879C4.93026 0.0265808 4.46986 0.104584 4.02456 0.142578C3.57916 0.18158 3.16886 0.254578 2.78366 0.324585C2.40476 0.394577 2.04956 0.449585 1.74776 0.530579C1.43956 0.611588 1.17466 0.682587 0.95916 0.742584C0.522064 0.862579 0.275864 0.93158 0.275864 0.93158C0.0729599 0.990585 -0.0390396 1.19858 0.0124664 1.39558C0.0633621 1.58759 0.258965 1.70758 0.450562 1.66258L0.481865 1.65958C0.481865 1.65958 0.723663 1.60959 1.15086 1.51558C1.36126 1.46957 1.62126 1.41158 1.91806 1.34358C2.21566 1.28258 2.55946 1.24158 2.92656 1.17859C3.29356 1.11658 3.69196 1.05157 4.12547 1.02058C4.55206 0.983581 5.00116 0.919586 5.46846 0.910583C5.93517 0.895584 6.41747 0.846588 6.91236 0.86058C7.40666 0.867584 7.90596 0.861588 8.40337 0.900589C8.90517 0.919586 9.40196 0.952576 9.88876 1.01158C10.38 1.05058 10.8561 1.12958 11.3248 1.19658C12.2514 1.35059 13.122 1.51057 13.85 1.70358C15.322 2.06258 16.263 2.42458 16.263 2.42458C16.316 2.4446 16.37 2.42058 16.39 2.36758C16.393 2.32957 16.375 2.27357 16.335 2.25258L16.335 2.25258Z" transform="translate(45.834324 237.16258)" id="Shape" fill="#333333" fill-rule="evenodd" stroke="#333333" stroke-width="1" />
                <path d="M15.401 0.0246582C24.761 0.484665 28.385 7.76666 29.562 11.0987C29.401 11.4567 29.23 11.8227 29.058 12.1947C27.399 9.97766 22.843 5.00766 15.347 5.02666C7.104 5.04366 2.90201 6.16367 0.289001 9.56566C0.205002 9.04765 0.133011 8.52266 0.0610046 7.99066C0.0380096 7.82767 0.0230103 7.67065 0 7.51466C2.263 4.40866 7.121 -0.385345 15.401 0.0246582L15.401 0.0246582Z" transform="translate(94.607285 156.9595)" id="Shape" fill="#B94966" fill-rule="evenodd" stroke="none" />
                <path d="M0 7.5087C2.25699 4.4027 7.11499 -0.385315 15.395 0.0246887C24.755 0.484695 28.379 7.76769 29.556 11.0987C28.774 12.8317 27.905 14.6317 26.937 16.4597C21.414 26.8447 16.206 32.4407 12.228 32.2067C8.25 31.9727 1.892 22.2257 0.0609894 7.98369C0.0379944 7.82169 0.022995 7.67068 0 7.5087L0 7.5087Z" transform="translate(94.6133 156.95747)" id="Shape" fill="none" fill-rule="evenodd" stroke="#333333" stroke-width="1.2" stroke-linecap="round" stroke-linejoin="round" />
                <path d="M26.733 11.198C26.733 11.198 5.62999 4.583 0 0C2.049 3.199 3.099 5.269 3.099 5.269C3.099 5.269 18.342 10.628 26.733 11.198L26.733 11.198Z" transform="translate(171.9083 94.323166)" id="Shape" fill="#ECA539" fill-rule="evenodd" stroke="none" />
                <path d="M6.75737 9.32117C6.75737 9.32117 6.48238 8.66318 6.04338 7.69318C5.94337 7.45018 5.78438 7.19318 5.63037 6.92318C5.47638 6.65318 5.31537 6.36518 5.14537 6.06518C4.80638 5.46518 4.37637 4.89918 3.98038 4.29218C3.78537 3.98917 3.56038 3.70718 3.34337 3.43117C3.12538 3.15517 2.90837 2.87918 2.69838 2.62118C2.26038 2.10718 1.85237 1.63418 1.47237 1.25418C1.10437 0.860176 0.776367 0.557175 0.546371 0.345177C0.315369 0.127174 0.171371 0.0211792 0.171371 0.0211792C0.124374 -0.0118256 0.0613708 -0.00582123 0.0213776 0.0361786C-0.00662231 0.0711746 -0.00762939 0.128174 0.0213776 0.163177C0.0213776 0.163177 0.440369 0.736176 1.06438 1.59917C1.38538 2.02318 1.71637 2.54818 2.11737 3.07217C2.30338 3.34518 2.49637 3.63018 2.68938 3.91518C2.87738 4.20718 3.10138 4.48218 3.28238 4.78117C3.65237 5.37817 4.06537 5.95818 4.36937 6.53017C4.53737 6.81118 4.69737 7.08018 4.84938 7.33818C5.00238 7.59518 5.15237 7.82718 5.26538 8.07618C5.74738 9.02917 6.08838 9.65417 6.08838 9.65417C6.18938 9.84118 6.41737 9.90617 6.60338 9.80518C6.75838 9.70718 6.82637 9.49818 6.75737 9.32117L6.75737 9.32117Z" transform="translate(168.74892 90.45499)" id="Shape" fill="#333333" fill-rule="evenodd" stroke="#333333" stroke-width="1" />
                <path d="M33.598 0C33.598 0 14.666 16.7929 0 24.9705C7.205 22.819 10.279 22.2372 10.279 22.2372C10.279 22.2372 29.643 6.2252 33.598 0L33.598 0Z" transform="translate(85.86629 44.91246)" id="Shape" fill="#ECA539" fill-rule="evenodd" stroke="none" />
                <path d="M101.235 198.887C103.402 197.782 105.568 196.676 107.711 195.516C109.861 194.374 111.979 193.159 114.066 191.896C116.153 190.627 118.17 189.232 120.102 187.738C122.026 186.232 123.862 184.608 125.621 182.915C127.367 181.205 129.064 179.456 130.712 177.66C132.36 175.865 133.935 173.975 135.278 171.919C136.615 169.863 137.719 167.628 138.326 165.233C138.959 162.843 139.023 160.331 138.79 157.894C138.563 155.444 138.075 153.046 137.613 150.657C137.139 148.27 136.828 145.873 136.724 143.448C136.489 138.596 136.988 133.745 137.436 128.894C137.661 126.468 137.845 124.027 137.897 121.581C137.949 119.14 137.936 116.688 137.817 114.246C137.692 111.804 137.465 109.36 137.076 106.939C136.668 104.52 136.109 102.109 135.169 99.8072L134.701 100.311L137.544 101.217L138.963 101.67L140.396 102.078L143.268 102.892L146.162 103.609C147.124 103.861 148.1 104.068 149.07 104.274C150.046 104.474 151.012 104.707 151.991 104.881L154.929 105.404C155.909 105.584 156.895 105.7 157.878 105.849L159.355 106.062L160.839 106.229C161.831 106.333 162.819 106.468 163.807 106.54L166.785 106.773L169.767 106.917C170.76 106.975 171.758 106.964 172.754 106.984L174.249 107.005L175.739 106.976C177.731 106.959 179.72 106.854 181.701 106.731L184.675 106.489L187.642 106.165L190.6 105.754L193.543 105.261L196.472 104.694L199.387 104.045L202.282 103.317C203.241 103.043 204.203 102.788 205.155 102.502C212.806 100.191 220.202 97.1012 227.103 93.1162C227.283 93.0152 227.348 92.7812 227.241 92.6012C227.21 92.5472 227.161 92.5012 227.114 92.4682C225.055 91.1852 222.98 89.9292 220.866 88.7342C219.807 88.1432 218.753 87.5392 217.678 86.9812C216.608 86.4042 215.533 85.8462 214.448 85.3082C212.287 84.2132 210.078 83.199 207.865 82.2104C205.637 81.2551 203.398 80.3199 201.118 79.4839C192.032 76.0796 182.561 73.7031 172.935 72.4899C163.315 71.2636 153.545 71.1999 143.906 72.3089C139.09 72.863 134.304 73.7185 129.592 74.8709C127.24 75.4562 124.902 76.11 122.592 76.8622C120.283 77.6208 118.004 78.4333 115.766 79.4511L116.176 79.505C115.133 78.6396 114.057 77.8792 112.952 77.1407C111.847 76.4084 110.708 75.7239 109.561 75.0721C108.413 74.414 107.238 73.8092 106.047 73.2252C104.862 72.6405 103.65 72.103 102.434 71.5849C101.212 71.0737 99.9801 70.5951 98.7401 70.1492C97.4931 69.7102 96.2421 69.2844 94.9711 68.9113C94.3431 68.7081 93.7051 68.5376 93.0621 68.3677C92.4251 68.1972 91.7861 68.0141 91.1451 67.8693L89.2141 67.4168L87.2691 67.0163C86.6231 66.8784 85.9681 66.7858 85.3171 66.6673C84.6671 66.5552 84.0161 66.4431 83.3631 66.363L81.4001 66.0975L79.4311 65.896C78.1201 65.7553 76.7971 65.6917 75.4791 65.6024C74.1591 65.5702 72.8401 65.4809 71.5211 65.5059L69.5401 65.5085L67.5601 65.5745C66.2411 65.6057 64.9241 65.7192 63.6041 65.8076C62.2831 65.8896 60.9801 66.0778 59.6641 66.2038C58.3511 66.3675 57.0501 66.5745 55.7461 66.7564L56.0471 67.4236C61.3341 63.0556 66.6021 58.626 71.4861 53.7722C72.7121 52.5645 73.9031 51.3223 75.0801 50.0689C76.2441 48.8041 77.3931 47.5218 78.5081 46.2112C80.7371 43.5838 82.8411 40.8547 84.8031 38.0259C86.7641 35.1971 88.5901 32.2679 90.2611 29.259L91.4941 26.9853L92.6671 24.686C93.4161 23.1333 94.1581 21.5811 94.8471 20.0027C95.2051 19.2184 95.5231 18.4192 95.8551 17.6249C96.1921 16.83 96.5111 16.0308 96.8161 15.2265C97.4521 13.6279 98.0161 11.9986 98.5931 10.3744C99.1241 8.73566 99.6821 7.10696 100.154 5.44886C100.666 3.80576 101.092 2.13326 101.552 0.47636C101.608 0.27426 101.492 0.0702591 101.29 0.0144596C101.232 0.00126076 101.175 -0.00564003 101.125 0.00576019L101.119 0.0063591C96.0251 0.94986 91.1091 2.58566 86.3301 4.51846C81.5591 6.46936 76.9391 8.77936 72.4861 11.3769C63.5801 16.5655 55.3421 22.9171 48.1021 30.2653C44.4851 33.9391 41.1081 37.8551 38.0461 42.0121C34.9831 46.1628 32.2021 50.5325 29.7881 55.0935C24.9211 64.2005 21.4501 74.0421 19.4061 84.1652L19.4621 84.0322C18.7191 85.1341 17.8153 86.1512 16.9692 87.2382C16.1162 88.3192 15.334 89.4762 14.6854 90.7022C13.3624 93.1492 12.562 95.8232 11.9458 98.5042C11.3365 101.191 11.0041 103.925 10.6228 106.614C10.2359 109.31 9.79144 111.999 9.30804 114.679C8.33504 120.04 7.14954 125.365 5.57194 130.565C4.77644 133.162 3.87013 135.727 2.75703 138.185C1.59563 140.667 0.640533 143.312 0.240433 146.066C-0.172668 148.815 -0.0345688 151.636 0.510132 154.346C1.06164 157.061 2.00774 159.674 3.17613 162.169C4.33833 164.664 5.74713 167.034 7.26743 169.316C8.79404 171.597 10.4445 173.79 12.1877 175.897C13.0593 176.951 13.9434 178.004 14.8557 179.021C15.3184 179.533 15.7492 180.041 16.2376 180.557L17.6633 182.024L20.5091 184.965C21.4611 185.941 22.4431 186.895 23.4191 187.856C24.3891 188.817 25.3701 189.765 26.3811 190.69C27.3851 191.616 28.3611 192.571 29.4051 193.455C31.4471 195.266 33.5541 197.02 35.8281 198.56C35.8891 198.599 35.9701 198.584 36.0081 198.523C36.0461 198.462 36.0321 198.388 35.9771 198.342L35.9701 198.337C35.4301 197.941 34.8941 197.513 34.3751 197.077C33.8511 196.641 33.3321 196.205 32.8301 195.742C31.7981 194.857 30.8011 193.936 29.8021 193.003C28.7991 192.089 27.8241 191.135 26.8371 190.194C25.8451 189.26 24.8821 188.305 23.9241 187.336C22.9661 186.373 21.9851 185.425 21.0331 184.45L18.1871 181.508L16.7672 180.034C16.3138 179.553 15.8624 179.028 15.4135 178.528C14.5081 177.516 13.6315 176.475 12.7724 175.42C11.043 173.324 9.41323 171.148 7.90804 168.89C6.40903 166.631 5.02203 164.291 3.88313 161.838C2.73853 159.391 1.81693 156.833 1.28554 154.192C0.761032 151.556 0.626633 148.836 1.03053 146.183C1.42123 143.525 2.33573 140.979 3.49333 138.523C4.63333 136.018 5.54903 133.421 6.36143 130.803C7.95973 125.556 9.16203 120.21 10.1457 114.829C10.6403 112.135 11.0717 109.442 11.4567 106.727C11.8299 104.02 12.1529 101.318 12.7415 98.6782C13.3371 96.0432 14.1118 93.4292 15.3804 91.0692C16.0015 89.8852 16.7499 88.7692 17.5797 87.7092C18.4031 86.6442 19.3111 85.6142 20.0931 84.4512C20.1201 84.4102 20.1351 84.3712 20.1501 84.3252L20.1491 84.3182C22.1821 74.2666 25.6281 64.4972 30.4571 55.4511C32.8551 50.9234 35.6211 46.587 38.6611 42.4639C41.7001 38.3345 45.0561 34.4524 48.6491 30.8C55.8431 23.5008 64.0291 17.1925 72.8751 12.0353C77.2981 9.45976 81.8891 7.16546 86.6291 5.22396C91.3641 3.30186 96.2511 1.68176 101.263 0.75276L100.83 0.28266C100.376 1.93266 99.9481 3.59266 99.4421 5.22876C98.9691 6.87436 98.4171 8.49606 97.8911 10.1279C97.3191 11.739 96.7611 13.3614 96.1231 14.9474C95.8251 15.751 95.5061 16.544 95.1671 17.3326C94.8351 18.1206 94.5231 18.9192 94.1651 19.6972C93.4821 21.2687 92.7451 22.814 92.0011 24.3535L90.8331 26.6397L89.6101 28.8932C87.9501 31.882 86.1411 34.7905 84.1901 37.5992C82.2391 40.408 80.1521 43.1226 77.9401 45.7293C76.8311 47.033 75.6941 48.3077 74.5361 49.5656C73.3651 50.8121 72.1791 52.0474 70.9651 53.2475C66.1101 58.0731 60.8651 62.4876 55.5721 66.85C55.4081 66.9807 55.3881 67.2236 55.5241 67.3811C55.6101 67.4866 55.7411 67.5305 55.8671 67.5179L55.8731 67.5172C57.1711 67.336 58.4661 67.1296 59.7661 66.9672C61.0691 66.8424 62.3671 66.6549 63.6751 66.574C64.9811 66.4807 66.2861 66.3684 67.5931 66.3385L69.5531 66.2681L71.5151 66.2674C72.8221 66.2437 74.1351 66.3336 75.4411 66.3608C76.7471 66.4513 78.0561 66.5099 79.3551 66.6519L81.3121 66.8546L83.2561 67.122C83.9031 67.2027 84.5531 67.3086 85.1971 67.4276C85.8421 67.5467 86.4901 67.6337 87.1301 67.7722L89.0561 68.1683L90.9671 68.6165C91.6081 68.7612 92.2341 68.9393 92.8651 69.1105C93.4961 69.2816 94.1271 69.4528 94.7541 69.6497C96.0121 70.0177 97.2501 70.4385 98.4831 70.8725C99.7171 71.3127 100.936 71.7926 102.144 72.2925C103.347 72.8055 104.54 73.3387 105.718 73.9177C106.89 74.4974 108.057 75.0965 109.192 75.7432C110.326 76.3902 111.451 77.0634 112.536 77.7849C113.621 78.5065 114.697 79.2669 115.678 80.0877C115.796 80.19 115.955 80.2056 116.088 80.1416C118.255 79.1627 120.538 78.337 122.824 77.5935C125.115 76.8494 127.435 76.1976 129.775 75.6198C134.455 74.4705 139.204 73.6188 143.996 73.0735C153.572 71.9708 163.278 72.0345 172.841 73.254C182.404 74.4672 191.822 76.8236 200.856 80.2078C203.122 81.0388 205.348 81.969 207.563 82.9193C209.769 83.9022 211.958 84.9062 214.112 85.9952C215.19 86.5272 216.265 87.0852 217.322 87.6572C218.391 88.2161 219.438 88.8142 220.497 89.3992C222.596 90.5832 224.664 91.8332 226.71 93.1112L226.721 92.4632C219.873 96.4112 212.526 99.4842 204.958 101.741C204.012 102.027 203.057 102.281 202.103 102.548L199.228 103.275L196.332 103.922L193.421 104.487L190.496 104.971L187.557 105.381L184.609 105.703L181.653 105.943C179.678 106.066 177.709 106.175 175.73 106.19L174.246 106.219L172.763 106.197C171.774 106.176 170.788 106.186 169.801 106.127L166.839 105.987L163.88 105.759C162.892 105.687 161.916 105.55 160.932 105.453L159.461 105.29L157.99 105.077C157.013 104.928 156.027 104.811 155.06 104.636L152.142 104.118C151.169 103.943 150.204 103.717 149.234 103.516C148.265 103.315 147.301 103.108 146.34 102.856L143.459 102.144L140.606 101.334L139.179 100.926L137.767 100.472L134.943 99.5702C134.74 99.5082 134.53 99.6182 134.467 99.8142C134.438 99.9002 134.447 99.9882 134.474 100.067L134.474 100.074C135.399 102.282 135.966 104.648 136.389 107.027C136.787 109.416 137.036 111.832 137.179 114.253C137.315 116.68 137.35 119.105 137.304 121.539C137.263 123.965 137.083 126.386 136.866 128.818C136.429 133.662 135.94 138.549 136.192 143.451C136.306 145.9 136.634 148.346 137.115 150.733C137.583 153.121 138.07 155.513 138.305 157.918C138.535 160.323 138.477 162.764 137.869 165.095C137.282 167.431 136.212 169.625 134.897 171.653C133.576 173.682 132.037 175.555 130.389 177.344C128.719 179.11 127.042 180.87 125.251 182.509C123.461 184.147 121.613 185.715 119.671 187.166C117.743 188.628 115.733 189.978 113.673 191.257C111.62 192.548 109.506 193.743 107.409 194.969C105.297 196.177 103.185 197.391 101.088 198.617C101.016 198.656 100.993 198.747 101.038 198.812C101.084 198.896 101.169 198.919 101.235 198.887L101.235 198.887Z" transform="translate(40.327152 0)" id="Shape" fill="#333333" fill-rule="evenodd" stroke="#333333" stroke-width="1" />
                <path d="M0.127357 6.04106C0.127357 6.04106 1.15536 5.63326 2.69436 5.01566C3.07636 4.85666 3.50536 4.71836 3.94336 4.54116C4.38836 4.36966 4.85136 4.19626 5.33236 4.00836C5.82136 3.83866 6.32336 3.66776 6.83636 3.48296C7.34236 3.29256 7.86136 3.10726 8.39037 2.95256C8.91736 2.78546 9.43936 2.62516 9.95436 2.46546C10.4684 2.29326 10.9874 2.17136 11.4804 2.03306C11.9794 1.90036 12.4594 1.76966 12.9154 1.64766C13.3714 1.51946 13.8034 1.41256 14.2074 1.34026C15.8184 1.00066 16.8944 0.759262 16.8944 0.759262L16.9254 0.749763C17.1294 0.703865 17.2544 0.50106 17.2084 0.296463C17.1634 0.0980606 16.9744 -0.0223389 16.7804 0.00346375C16.7804 0.00346375 15.6784 0.177765 14.0244 0.470863C13.6074 0.538162 13.1684 0.639359 12.7074 0.768265C12.2444 0.88456 11.7504 1.01026 11.2454 1.14356C10.7394 1.27056 10.2084 1.40006 9.69536 1.59106C9.17535 1.76396 8.64236 1.93806 8.11636 2.11776C7.58237 2.28556 7.06436 2.48346 6.54636 2.68147C6.03436 2.87246 5.53036 3.08167 5.05036 3.27586C4.57136 3.48886 4.11136 3.69366 3.67536 3.88966C3.23936 4.07936 2.82936 4.28546 2.46336 4.48087C2.09036 4.67686 1.75336 4.85027 1.45336 5.01357C1.16036 5.18256 0.904358 5.33516 0.694359 5.45766C0.270363 5.70326 0.0453567 5.85906 0.0463562 5.86536C-0.00164032 5.89546 -0.0136414 5.96016 0.0163574 6.00786C0.0313568 6.03796 0.0833588 6.05177 0.127357 6.04106L0.127357 6.04106Z" transform="translate(79.30693 66.765594)" id="Shape" fill="#333333" fill-rule="evenodd" stroke="#333333" stroke-width="1" />
                <path d="M0 17.148C0 17.148 18.245 12.586 14.132 0C9.97 7.439 7.317 11.199 0 17.148L0 17.148Z" transform="translate(151.4533 242.20218)" id="Shape" fill="#ECA539" fill-rule="evenodd" stroke="none" />
                <path d="M23.4272 0.0265503C23.4272 0.0265503 23.3292 0.125549 23.1342 0.322556C22.9382 0.51355 22.6572 0.807556 22.2982 1.19955C21.5662 1.97055 20.5312 3.12656 19.2742 4.66154C18.0032 6.17755 16.5512 8.09955 14.9762 10.3696C13.4072 12.6385 11.7232 15.2686 10.0732 18.2435C8.4242 21.2186 6.7762 24.5285 5.4182 28.1975C5.10719 29.1295 4.79619 30.0675 4.4742 31.0196C4.1722 31.9756 3.90219 32.9406 3.61519 33.9276C3.0602 35.8915 2.51619 37.9055 2.0152 39.9725C1.5132 42.0335 1.0432 44.1476 0.658188 46.3045C0.294189 48.4716 -0.0548096 50.6625 0.00720215 52.9775C0.0471954 53.5626 0.0741882 54.1436 0.349197 54.8005C0.6772 55.6746 1.7822 55.7726 2.3992 55.5586C2.7242 55.4555 3.01219 55.2935 3.23019 55.1956C3.33119 55.1345 3.45819 55.1345 3.3302 55.1285C3.3172 55.1176 3.24019 55.1125 3.2112 55.0775C3.1772 55.0555 3.1572 55.0446 3.14819 55.0135C3.08319 54.8745 3.1402 55.0016 3.1322 54.9836L3.15019 55.0326C3.1662 55.0695 3.17619 55.0995 3.1702 55.1065L3.2132 55.4135L3.2612 55.8206L3.3452 56.6616C3.4092 57.2325 3.48619 57.8076 3.6402 58.4016C3.71519 58.6985 3.8212 58.9985 3.96519 59.3005C4.1402 59.5935 4.32019 59.9305 4.72719 60.1436L4.7952 60.1876C4.8152 60.1985 4.9072 60.2396 4.88719 60.2285L4.98619 60.2635C5.05119 60.2885 5.11119 60.3145 5.22119 60.3346C5.4352 60.3896 5.60719 60.3975 5.78419 60.3986C6.1322 60.3955 6.45419 60.3246 6.75519 60.2436C7.34019 60.0775 7.87819 59.8265 8.27319 59.7935C8.4612 59.7805 8.5282 59.8116 8.6272 59.9165C8.71219 60.0026 8.8302 60.2386 8.91719 60.4706C9.09819 60.9525 9.2052 61.5066 9.4742 62.1075C9.54619 62.2585 9.6252 62.4156 9.75519 62.5796C9.82719 62.6616 9.88519 62.7386 9.9942 62.8155L10.0692 62.8715C10.1302 62.9036 10.0442 62.8745 10.2172 62.9525L10.3152 62.9865C10.3352 62.9905 10.3412 62.9965 10.3682 63.0066L10.4902 63.0255C10.5732 63.0366 10.6562 63.0406 10.7382 63.0396C10.8502 63.0215 10.9622 62.9976 11.0602 62.9685C11.2432 62.9055 11.4002 62.8265 11.5372 62.7436C12.0742 62.4165 12.5142 62.0106 12.8932 61.8206C12.9712 61.7745 13.0542 61.7786 12.9772 61.7736C12.9702 61.7686 12.9332 61.7726 12.9182 61.7545L12.8622 61.6966L12.8982 61.7375C12.9742 61.8055 12.9422 61.8026 12.9422 61.8026C13.0042 61.9175 13.0632 62.1836 13.1082 62.4456C13.1552 62.7195 13.1972 63.0196 13.3132 63.3506C13.4212 63.6696 13.6712 64.0826 14.0962 64.2736C14.2342 64.3296 14.1612 64.2996 14.2072 64.3135L14.2592 64.3275C14.3042 64.3355 14.3052 64.3475 14.3822 64.3596C14.5112 64.3785 14.6772 64.3936 14.7632 64.3716C14.9762 64.3505 15.1542 64.2885 15.3112 64.2216C15.6262 64.0815 15.8762 63.9175 16.1082 63.7736C16.3402 63.6235 16.5662 63.4865 16.7432 63.4175C16.8282 63.3846 16.8972 63.3776 16.9102 63.3825L16.9162 63.3816C16.8972 63.3776 16.9682 63.3955 16.8762 63.3605L16.9692 63.4015C17.0422 63.4326 16.9922 63.4376 17.0172 63.4416C17.2892 63.6925 17.5572 64.2115 17.8462 64.6956C17.9972 64.9406 18.1492 65.1975 18.4172 65.4685C18.5562 65.5945 18.7372 65.7535 19.0632 65.7906C19.1142 65.7925 19.2462 65.7856 19.3262 65.7646C19.3942 65.7445 19.4302 65.7285 19.4792 65.7105C19.5712 65.6765 19.6432 65.6375 19.7152 65.6046C20.2672 65.3015 20.6892 64.9745 21.1442 64.6495C21.5852 64.3195 22.0212 63.9966 22.4562 63.6675C24.1922 62.3705 25.9272 61.1245 27.7712 60.2036C29.6682 59.2455 31.5352 58.3726 33.2762 57.2526C34.1522 56.7145 35.0382 56.2136 35.8752 55.6595C36.6902 55.0836 37.5002 54.5196 38.2982 53.9575C39.0882 53.3906 39.8962 52.8646 40.6412 52.2826C41.3792 51.6885 42.0982 51.1025 42.8122 50.5295C44.2212 49.3735 45.6572 48.2975 46.8822 47.1406C49.4232 44.9125 51.6192 42.6566 53.4572 40.6075C55.2722 38.5226 56.7852 36.6455 57.8702 34.9766C58.1512 34.5675 58.4102 34.1805 58.6582 33.8126C58.8852 33.4345 59.0962 33.0775 59.2972 32.7465C59.6922 32.0855 60.0222 31.5196 60.2522 31.0395C60.7262 30.0916 60.9782 29.5846 60.9782 29.5846C61.0002 29.5446 60.9822 29.4955 60.9422 29.4745C60.9022 29.4525 60.8592 29.4695 60.8312 29.5045L60.8262 29.5115C60.8262 29.5115 60.5322 29.9905 59.9842 30.8955C59.7262 31.3525 59.3572 31.8906 58.9202 32.5186C58.7052 32.8315 58.4792 33.1715 58.2312 33.5385C57.9692 33.8885 57.6902 34.2585 57.3952 34.6566C57.0992 35.0475 56.7932 35.4655 56.4562 35.8925C56.1122 36.3076 55.7512 36.7495 55.3732 37.2055C54.6512 38.1406 53.7642 39.0735 52.8682 40.1025C50.9802 42.0926 48.8682 44.3026 46.3072 46.5196C45.0692 47.6775 43.6742 48.7126 42.2582 49.8625C41.5492 50.4286 40.8292 51.0085 40.0982 51.5956C39.3582 52.1706 38.5552 52.6826 37.7772 53.2425C36.9842 53.7915 36.1862 54.3545 35.3762 54.9175C34.5512 55.4575 33.6822 55.9435 32.8242 56.4676C31.1362 57.5505 29.2322 58.4336 27.3522 59.3766C25.4052 60.3405 23.6352 61.6155 21.8802 62.9076C21.0132 63.5406 20.1182 64.2646 19.2622 64.7495C19.2142 64.7736 19.1592 64.7986 19.1232 64.8145L19.0812 64.8315C19.0982 64.8175 19.1632 64.8296 19.1442 64.8376C19.1912 64.8586 19.1322 64.8395 19.0762 64.7816C18.9502 64.6606 18.8072 64.4406 18.6772 64.2185C18.3912 63.7656 18.1942 63.2465 17.6542 62.7235C17.5642 62.6505 17.4152 62.5515 17.3622 62.5316L17.2702 62.4896C17.1442 62.4395 17.1782 62.4615 17.1262 62.4475L17.0302 62.4315C16.7662 62.3946 16.5572 62.4535 16.3862 62.5156C16.0452 62.6446 15.8032 62.8155 15.5582 62.9605C15.1082 63.2715 14.6172 63.4855 14.4932 63.3846C14.4002 63.3365 14.3212 63.2436 14.2442 63.0415C14.1732 62.8395 14.1342 62.5836 14.0872 62.3026C14.0332 62.0165 14.0102 61.7206 13.8122 61.3286C13.7422 61.2025 13.6412 61.0796 13.6072 61.0576L13.5722 61.0165C13.4742 60.9255 13.4762 60.9506 13.4222 60.9116C13.3422 60.8686 13.2482 60.8206 13.1712 60.8095C13.0942 60.7986 13.0122 60.7935 12.9292 60.7956C12.8542 60.7975 12.8052 60.8145 12.7432 60.8275C12.6132 60.8535 12.5412 60.8986 12.4502 60.9326C11.8312 61.2615 11.4452 61.6425 11.0082 61.8896C10.9072 61.9506 10.8102 61.9915 10.7252 62.0255C10.6882 62.0356 10.6562 62.0395 10.6322 62.0475C10.6442 62.0406 10.6572 62.0456 10.6702 62.0505C10.6772 62.0565 10.6842 62.0616 10.6852 62.0675C10.6782 62.0685 10.6522 62.0586 10.6392 62.0536C10.5892 62.0586 10.4812 61.9295 10.3832 61.7115C10.1882 61.2805 10.0742 60.7155 9.8642 60.1406C9.7462 59.8475 9.6472 59.5536 9.3472 59.2155C9.2632 59.1295 9.1452 59.0266 9.1052 59.0056L9.01619 58.9445C8.89619 58.8745 8.9372 58.9085 8.8902 58.8816L8.8112 58.8516C8.5932 58.7656 8.37219 58.7625 8.1832 58.7745C7.45219 58.8615 6.9592 59.1266 6.46019 59.2585C6.2142 59.3286 5.98419 59.3705 5.7702 59.3795C5.6622 59.3776 5.5602 59.3686 5.4962 59.3556C5.4702 59.3586 5.39819 59.3336 5.33319 59.3086L5.23419 59.2745C5.18219 59.2545 5.24719 59.2795 5.23419 59.2745L5.2142 59.2575C4.9812 59.1475 4.7482 58.6516 4.6292 58.1625C4.4962 57.6616 4.4232 57.1235 4.36119 56.5725L4.27119 55.7375L4.22119 55.3055C4.2002 55.1555 4.1862 55.0175 4.12419 54.7826C4.1122 54.7206 4.09619 54.6836 4.08719 54.6595L4.0692 54.6105C4.0452 54.5626 4.0992 54.6516 4.0062 54.4896C3.94719 54.4076 3.8902 54.3365 3.80119 54.2696C3.70619 54.2096 3.5732 54.1465 3.4912 54.1425C3.08319 54.1136 2.9372 54.2425 2.7912 54.2956C2.5072 54.4315 2.3042 54.5475 2.0952 54.6125C1.90619 54.6826 1.69119 54.6786 1.5802 54.6516C1.56819 54.6595 1.4892 54.6226 1.4292 54.5966L1.33719 54.5555C1.4102 54.5926 1.3562 54.5595 1.37619 54.5706C1.3622 54.5595 1.31219 54.5005 1.2782 54.4095C1.1142 54.0385 1.0582 53.4806 1.02519 52.9636C0.961197 50.8265 1.2912 48.6316 1.6472 46.5096C2.0152 44.3795 2.47519 42.2856 2.9722 40.2375C3.4682 38.1906 4.0002 36.1845 4.5502 34.2266C4.8252 33.2535 5.09419 32.2755 5.39119 31.3326C5.70219 30.3946 6.00819 29.4695 6.3082 28.5586C7.6342 24.9435 9.25319 21.6676 10.8742 18.7206C12.5012 15.7735 14.1562 13.1595 15.7072 10.9046C17.2372 8.63255 18.6512 6.70854 19.8142 5.12054C20.9832 3.53854 21.9362 2.31955 22.5802 1.48155C23.2302 0.655548 23.5842 0.20755 23.5842 0.20755C23.6232 0.158554 23.6172 0.0895538 23.5682 0.0505524C23.5302 -0.0154572 23.4672 -0.00944519 23.4272 0.0265503L23.4272 0.0265503Z" transform="translate(104.688095 212.67361)" id="Shape" fill="#333333" fill-rule="evenodd" stroke="#333333" stroke-width="1" />
              </g>
            </g>
          </g>
        </g>
      </g>
    </g>
  </g>
</svg>