<?xml version="1.0" encoding="utf-8"?>
<svg width="112px" height="112px" viewBox="0 0 112 112" version="1.1" xmlns:xlink="http://www.w3.org/1999/xlink" xmlns="http://www.w3.org/2000/svg">
  <defs>
    <path d="M0 0L106 0L106 106L0 106L0 0Z" transform="translate(0 -3.0517578E-05)" id="path_1" />
    <path d="M0 0L106 0L106 53L0 53L0 0Z" id="path_2" />
    <clipPath id="mask_1">
      <use xlink:href="#path_1" />
    </clipPath>
    <clipPath id="mask_2">
      <use xlink:href="#path_2" />
    </clipPath>
  </defs>
  <g id="svg" transform="matrix(0.9998477 -0.017452393 0.017452393 0.9998477 2.034668 3.884552)">
    <path d="M0 0L106 0L106 106L0 106L0 0Z" transform="translate(0 -3.0517578E-05)" id="Background" fill="none" fill-rule="evenodd" stroke="none" />
    <g clip-path="url(#mask_1)">
      <path d="M0 51C0 22.8335 22.8335 0 51 0C79.1665 0 102 22.8335 102 51C102 79.1665 79.1665 102 51 102C22.8335 102 0 79.1665 0 51Z" transform="translate(2.0031738 2.000122)" id="Circle" fill="#FFFFFF" fill-rule="evenodd" stroke="#333333" stroke-width="4" />
      <g id="Mask-group" transform="translate(0 -6.1035156E-05)">
        <path d="M0 0L106 0L106 53L0 53L0 0Z" id="Rectangle" fill="none" fill-rule="evenodd" stroke="none" />
        <g clip-path="url(#mask_2)">
          <g id="Group" transform="translate(2.0007324 1.9999695)">
            <path d="M0 51C0 22.8335 22.8335 0 51 0C79.1665 0 102 22.8335 102 51C102 79.1665 79.1665 102 51 102C22.8335 102 0 79.1665 0 51Z" id="Circle" fill="#F22539" fill-rule="evenodd" stroke="#333333" stroke-width="4" />
          </g>
        </g>
      </g>
      <path d="M0 0L105.214 0" transform="translate(0.39257812 52.99997)" id="Shape" fill="none" fill-rule="evenodd" stroke="#333333" stroke-width="4" />
      <path d="M0 20.8074C0 9.31579 9.31579 0 20.8074 0C32.299 0 41.6148 9.31579 41.6148 20.8074C41.6148 32.299 32.299 41.6148 20.8074 41.6148C9.31579 41.6148 0 32.299 0 20.8074Z" transform="translate(32.192627 32.192383)" id="Circle" fill="#FFFFFF" fill-rule="evenodd" stroke="none" />
      <path d="M0 18.8074C0 8.42036 8.42036 0 18.8074 0C29.1944 0 37.6148 8.42036 37.6148 18.8074C37.6148 29.1944 29.1944 37.6148 18.8074 37.6148C8.42036 37.6148 0 29.1944 0 18.8074Z" transform="translate(34.192627 34.192383)" id="Circle" fill="none" fill-rule="evenodd" stroke="#333333" stroke-width="4" />
      <path d="M26.3643 23.8649C21.5731 12.489 11.9163 3.6653 0 0" transform="translate(65.3667 12.842773)" id="Shape" fill="none" fill-rule="evenodd" stroke="#FFFFFF" stroke-width="4" stroke-linecap="round" stroke-linejoin="round" />
      <path d="M0 10.3852C0 4.64961 4.64961 0 10.3852 0C16.1208 0 20.7704 4.64961 20.7704 10.3852C20.7704 16.1208 16.1208 20.7704 10.3852 20.7704C4.64961 20.7704 0 16.1208 0 10.3852Z" transform="translate(42.614746 42.61557)" id="Circle" fill="none" fill-rule="evenodd" stroke="#808080" stroke-width="2" />
    </g>
  </g>
</svg>